# xmcd
#
# Track frame offsets: 
#        150
#        16843
#        36138
#        56421
#        75654
#        106101
#
# Disc length: 4440 seconds
#
# Revision: 1
# Processed by: cddbd v1.5.2PL0 Copyright (c) Steve Scherf et al.
# Submitted via: ExactAudioCopyFreeDBPlugin 1.0
#
DISCID=38115606
DTITLE=D-Flame - Mehr als Musik [CDS)
DYEAR=2002
DGENRE=Hip-Hop
TTITLE0=Mehr als Musik feat. Tone (Radio Mix)
TTITLE1=Mehr als Musik feat. Tone (Hot Beat Rmx)
TTITLE2=Mehr als Musik feat. Tone (C-L-A-S and X-Ray Rmx)
TTITLE3=Mehr als Musik feat. Tone (Main Mix)
TTITLE4=Mehr als Musik feat. Tone (Instrumental)
TTITLE5=DATA
EXTD=
EXTT0=
EXTT1=
EXTT2=
EXTT3=
EXTT4=
EXTT5=
PLAYORDER=
